<svg id="visual" viewBox="0 0 900 600" width="900" height="600" xmlns="http://www.w3.org/2000/svg" xmlns:xlink="http://www.w3.org/1999/xlink" version="1.1"><rect x="0" y="0" width="900" height="600" fill="#002233"></rect><path d="M0 435L25 443.3C50 451.7 100 468.3 150 472.7C200 477 250 469 300 455.7C350 442.3 400 423.7 450 425C500 426.3 550 447.7 600 466C650 484.3 700 499.7 750 489.3C800 479 850 443 875 425L900 407L900 601L875 601C850 601 800 601 750 601C700 601 650 601 600 601C550 601 500 601 450 601C400 601 350 601 300 601C250 601 200 601 150 601C100 601 50 601 25 601L0 601Z" fill="#0066FF" stroke-linecap="round" stroke-linejoin="miter"></path></svg>